<?xml version="1.0" encoding="UTF-8"?>
<svg id="Layer_1" xmlns="http://www.w3.org/2000/svg" version="1.1" xmlns:xlink="http://www.w3.org/1999/xlink" viewBox="0 0 1185 1189.78">
  <!-- Generator: Adobe Illustrator 29.7.1, SVG Export Plug-In . SVG Version: 2.1.1 Build 8)  -->
  <defs>
    <style>
      .st0 {
        fill: none;
      }

      .st1 {
        clip-path: url(#clippath);
      }

      .st2 {
        fill: #ff0;
        fill-rule: evenodd;
      }
    </style>
    <clipPath id="clippath">
      <rect class="st0" width="1185" height="1189.78"/>
    </clipPath>
  </defs>
  <g class="st1">
    <g>
      <path class="st2" d="M0,202.28C0,93.2,88.43,4.78,197.5,4.78h790c109.08,0,197.5,88.43,197.5,197.5v789.99c0,109.08-88.43,197.5-197.5,197.5H197.51C88.43,1189.77.01,1101.34.01,992.27V202.28h-.01Z"/>
      <g>
        <path d="M74.06,888.75h1036.88v49.37H74.06v-49.37Z"/>
        <path d="M196.62,570.34c-12.31-.97-23.37-7.88-29.62-18.52l-79.36-134.99c-2.57-4.54-.97-10.3,3.57-12.87.84-.48,1.75-.82,2.7-1.02l29.16-6.17c8.61-1.81,17.56.47,24.26,6.17l107.02,91.66,203.3-42.66-207.07-172.36c-4.01-3.35-4.54-9.31-1.19-13.32,1.36-1.63,3.22-2.75,5.3-3.18l42.81-8.97c7.81-1.65,15.93-.79,23.22,2.47l340.22,152.79,286.47-60.05c36.95-7.76,139.07,19.05,144.88,46.77,9.7,46.2-82.7,65.59-82.7,65.59l-478.44,100.4c-78.8,16.54-159.55,21.78-239.83,15.59l-94.69-7.34h-.01Z"/>
      </g>
    </g>
  </g>
</svg>